<?xml version="1.0"?>
<svg xmlns="http://www.w3.org/2000/svg" xmlns:xlink="http://www.w3.org/1999/xlink" xmlns:svgjs="http://svgjs.com/svgjs" version="1.1" width="512" height="512" x="0" y="0" viewBox="0 0 512 512" style="enable-background:new 0 0 512 512" xml:space="preserve"><g><path xmlns="http://www.w3.org/2000/svg" d="m51.90625 435.046875c-6.695312 0-12.988281 2.605469-17.71875 7.332031-4.726562 4.726563-7.328125 11.019532-7.328125 17.714844 0 6.699219 2.601563 12.992188 7.328125 17.71875 4.730469 4.726562 11.023438 7.332031 17.71875 7.332031 6.699219 0 12.992188-2.605469 17.71875-7.332031s7.328125-11.019531 7.328125-17.71875c0-6.695312-2.601563-12.988281-7.328125-17.714844-4.726562-4.730468-11.019531-7.332031-17.71875-7.332031zm7.113281 32.160156c-1.894531 1.894531-4.421875 2.9375-7.109375 2.9375-2.695312 0-5.21875-1.046875-7.113281-2.9375-1.894531-1.894531-2.9375-4.421875-2.9375-7.113281s1.042969-5.214844 2.9375-7.109375 4.417969-2.9375 7.113281-2.9375c2.6875 0 5.214844 1.042969 7.109375 2.9375s2.9375 4.417969 2.9375 7.109375-1.046875 5.21875-2.9375 7.113281zm0 0" fill="#00002e" data-original="#000000" style=""/><path xmlns="http://www.w3.org/2000/svg" d="m210.859375 290.53125 112.867187-112.867188 10.605469 10.605469-112.867187 112.867188zm0 0" fill="#00002e" data-original="#000000" style=""/><path xmlns="http://www.w3.org/2000/svg" d="m330.796875 170.597656 10.605469-10.609375 10.605468 10.609375-10.605468 10.605469zm0 0" fill="#00002e" data-original="#000000" style=""/><path xmlns="http://www.w3.org/2000/svg" d="m348.472656 152.917969 10.605469-10.605469 10.609375 10.605469-10.605469 10.609375zm0 0" fill="#00002e" data-original="#000000" style=""/><path xmlns="http://www.w3.org/2000/svg" d="m458.421875 408.246094-115.222656-115.226563 1.261719-34.085937-14.988282-.558594-1.261718 34.050781-8.347657 8.347657 10.609375 10.605468 4.933594-4.9375 12.574219 12.574219-9.773438 9.769531-47.074219-28.992187 220.867188-299.792969-299.792969 220.867188-49.035156-79.617188 5.632813 151.769531-115.222657 115.226563c-14.117187-.441406-28.109375 4.863281-38.382812 15.140625-20.242188 20.242187-20.242188 53.175781 0 73.417969 10.121093 10.121093 23.414062 15.179687 36.707031 15.179687 13.296875 0 26.589844-5.058594 36.710938-15.179687 10.273437-10.277344 15.582031-24.269532 15.140624-38.382813l115.222657-115.222656 101.066406 3.75-11.636719 11.636719 99.835938 99.835937c-.441406 14.113281 4.867187 28.105469 15.140625 38.382813 10.121093 10.121093 23.414062 15.179687 36.707031 15.179687 13.296875 0 26.589844-5.058594 36.710938-15.179687 20.238281-20.242188 20.238281-53.175782 0-73.417969-10.277344-10.277344-24.269532-15.582031-38.382813-15.140625zm-46.695313 32.449218-12.570312-12.574218 28.964844-28.964844 12.574218 12.574219zm-6.785156-64.71875 12.574219 12.574219-28.96875 28.964844-12.570313-12.570313zm-39.570312 18.359376-12.570313-12.570313 28.964844-28.964844 12.570313 12.570313zm-6.785156-64.714844 12.570312 12.570312-4.261719 4.261719-15.558593-9.582031zm-240.921876 35.75 12.574219-12.570313 28.964844 28.964844-12.574219 12.570313zm18.359376 39.574218-12.570313 12.570313-28.964844-28.964844 12.570313-12.574219zm4.820312-62.753906 12.570312-12.570312 28.964844 28.964844-12.570312 12.570312zm23.179688-23.175781 12.570312-12.574219 28.964844 28.964844-12.570313 12.570312zm-80.144532 80.140625 28.964844 28.964844-12.570312 12.574218-28.964844-28.96875zm-5.867187 87.042969c-14.394531 14.390625-37.816407 14.390625-52.207031 0-14.394532-14.394531-14.394532-37.8125 0-52.207031 7.023437-7.023438 16.488281-10.777344 26.132812-10.777344 3.839844 0 7.710938.597656 11.464844 1.820312l23.566406 23.566406c4.292969 13.171876.859375 27.777344-8.957031 37.597657zm141.5625-157.988281-35.78125-35.785157-3.519531-94.804687 27.710937 44.988281 233.25-171.84375-171.84375 233.253906 44.992187 27.707031zm120.925781 19.496093 24.246094.898438-22.554688 22.550781-12.570312-12.570312zm145.699219 138.492188c-14.394531 14.394531-37.8125 14.390625-52.207031 0-9.816407-9.820313-13.25-24.425781-8.957032-37.597657l23.566406-23.566406c13.175782-4.296875 27.777344-.859375 37.597657 8.957032 14.390625 14.394531 14.390625 37.8125 0 52.207031zm0 0" fill="#00002e" data-original="#000000" style=""/><path xmlns="http://www.w3.org/2000/svg" d="m460.09375 435.046875c-6.695312 0-12.988281 2.605469-17.714844 7.332031-4.730468 4.726563-7.332031 11.019532-7.332031 17.714844 0 6.699219 2.601563 12.992188 7.328125 17.71875 4.730469 4.726562 11.023438 7.332031 17.71875 7.332031 6.699219 0 12.988281-2.605469 17.71875-7.332031 4.726562-4.726562 7.328125-11.019531 7.328125-17.71875 0-6.695312-2.601563-12.988281-7.328125-17.714844-4.730469-4.730468-11.019531-7.332031-17.71875-7.332031zm7.113281 32.160156c-1.894531 1.894531-4.421875 2.9375-7.113281 2.9375s-5.214844-1.046875-7.109375-2.9375c-1.894531-1.894531-2.9375-4.421875-2.9375-7.113281s1.042969-5.214844 2.9375-7.109375 4.417969-2.9375 7.109375-2.9375 5.21875 1.042969 7.113281 2.9375 2.9375 4.417969 2.9375 7.109375-1.046875 5.21875-2.9375 7.113281zm0 0" fill="#00002e" data-original="#000000" style=""/><path xmlns="http://www.w3.org/2000/svg" d="m158.679688 190.09375-87.914063-119.328125 74.652344 54.996094 8.894531-12.074219-154.3125-113.6875 146.605469 198.992188zm0 0" fill="#00002e" data-original="#000000" style=""/><path xmlns="http://www.w3.org/2000/svg" d="m172.371094 145.625 8.898437-12.074219 62.3125 45.902344-8.894531 12.074219zm0 0" fill="#00002e" data-original="#000000" style=""/></g></svg>
